<svg width="100" height="100" viewBox="0 0 100 100" fill="none" xmlns="http://www.w3.org/2000/svg">
<path d="M76.5625 0H23.4375C10.4933 0 0 10.4933 0 23.4375V76.5625C0 89.5067 10.4933 100 23.4375 100H76.5625C89.5067 100 100 89.5067 100 76.5625V23.4375C100 10.4933 89.5067 0 76.5625 0Z" fill="#F4F2ED"/>
<g clip-path="url(#clip0_6286_3763)">
<mask id="mask0_6286_3763" style="mask-type:luminance" maskUnits="userSpaceOnUse" x="14" y="14" width="72" height="72">
<path d="M14 14H86V86H14V14Z" fill="white"/>
</mask>
<g mask="url(#mask0_6286_3763)">
<path fill-rule="evenodd" clip-rule="evenodd" d="M14 50.201C14 68.102 26.999 82.982 44 86V59.999H35V50H44V41.999C44 32.999 49.799 28.001 58.001 28.001C60.599 28.001 63.401 28.4 65.999 28.799V38H61.4C56.999 38 56 40.199 56 43.001V50H65.6L64.001 59.999H56V86C73.001 82.982 86 68.102 86 50.201C86 30.29 69.8 14 50 14C30.2 14 14 30.29 14 50.201Z" fill="#9C59CC"/>
</g>
</g>
<defs>
<clipPath id="clip0_6286_3763">
<rect width="72" height="72" fill="white" transform="translate(14 14)"/>
</clipPath>
</defs>
</svg>
