<svg width="100" height="100" viewBox="0 0 100 100" fill="none" xmlns="http://www.w3.org/2000/svg">
<path d="M76.5625 0H23.4375C10.4933 0 0 10.4933 0 23.4375V76.5625C0 89.5067 10.4933 100 23.4375 100H76.5625C89.5067 100 100 89.5067 100 76.5625V23.4375C100 10.4933 89.5067 0 76.5625 0Z" fill="#F4F2ED"/>
<path d="M62.3334 77.75V71.5833C62.3334 68.3123 61.034 65.1753 58.7211 62.8624C56.4081 60.5494 53.2711 59.25 50.0001 59.25H31.5001C28.2291 59.25 25.092 60.5494 22.7791 62.8624C20.4661 65.1753 19.1667 68.3123 19.1667 71.5833V77.75M80.8334 77.75V71.5833C80.8314 68.8507 79.9218 66.196 78.2476 64.0363C76.5734 61.8766 74.2293 60.334 71.5834 59.6508M62.3334 22.6508C64.9864 23.3301 67.3378 24.873 69.017 27.0363C70.6962 29.1996 71.6076 31.8602 71.6076 34.5988C71.6076 37.3373 70.6962 39.9979 69.017 42.1612C67.3378 44.3245 64.9864 45.8674 62.3334 46.5467M53.0834 34.5833C53.0834 41.3948 47.5616 46.9167 40.7501 46.9167C33.9386 46.9167 28.4167 41.3948 28.4167 34.5833C28.4167 27.7718 33.9386 22.25 40.7501 22.25C47.5616 22.25 53.0834 27.7718 53.0834 34.5833Z" stroke="#9C59CC" stroke-width="6" stroke-linecap="round" stroke-linejoin="round"/>
</svg>
