<svg width="100" height="100" viewBox="0 0 100 100" fill="none" xmlns="http://www.w3.org/2000/svg">
<path d="M76.5625 0H23.4375C10.4933 0 0 10.4933 0 23.4375V76.5625C0 89.5067 10.4933 100 23.4375 100H76.5625C89.5067 100 100 89.5067 100 76.5625V23.4375C100 10.4933 89.5067 0 76.5625 0Z" fill="#F4F2ED"/>
<path d="M44.5 44.5C50.5751 44.5 55.5 39.5751 55.5 33.5C55.5 27.4249 50.5751 22.5 44.5 22.5C38.4249 22.5 33.5 27.4249 33.5 33.5C33.5 39.5751 38.4249 44.5 44.5 44.5Z" stroke="#9C59CC" stroke-width="6"/>
<path d="M66.5 65.125C66.5 71.9596 66.5 77.5 44.5 77.5C22.5 77.5 22.5 71.9596 22.5 65.125C22.5 58.2904 32.3497 52.75 44.5 52.75C56.6503 52.75 66.5 58.2904 66.5 65.125Z" stroke="#9C59CC" stroke-width="6"/>
<path d="M63.2841 48.0437L63.2839 48.0435C62.1992 46.8611 61.4375 45.4734 61.4375 43.6742C61.4375 41.9034 62.4715 40.4018 63.91 39.7652L63.9101 39.7652C65.0764 39.249 66.4861 39.2993 67.8846 40.2111L69.25 41.1013L70.6154 40.2111C72.0139 39.2993 73.4236 39.249 74.5899 39.7652L74.59 39.7652C76.0285 40.4018 77.0625 41.9034 77.0625 43.6742C77.0625 45.4734 76.3008 46.8611 75.2161 48.0435L75.2159 48.0437C74.3271 49.0128 73.2454 49.82 72.2118 50.5913C71.9678 50.7734 71.7265 50.9534 71.491 51.1332L71.4808 51.141L71.4807 51.141C71.0537 51.4666 70.659 51.763 70.2763 51.9794L70.2755 51.9798C69.8904 52.1978 69.5551 52.3125 69.25 52.3125C68.9449 52.3125 68.6096 52.1978 68.2245 51.9798L68.2237 51.9794C67.841 51.763 67.4463 51.4666 67.0193 51.141C67.0193 51.141 67.0193 51.141 67.0192 51.141L67.009 51.1332C67.0088 51.133 67.0086 51.1329 67.0085 51.1328C67.0083 51.1326 67.0081 51.1325 67.0079 51.1324C66.7728 50.9529 66.5318 50.7731 66.2882 50.5913C65.2546 49.82 64.1729 49.0128 63.2841 48.0437Z" stroke="#9C59CC" stroke-width="5"/>
</svg>
