<svg width="100" height="100" viewBox="0 0 100 100" fill="none" xmlns="http://www.w3.org/2000/svg">
<g clip-path="url(#clip0_6286_4019)">
<path d="M76.5625 0H23.4375C10.4933 0 0 10.4933 0 23.4375V76.5625C0 89.5067 10.4933 100 23.4375 100H76.5625C89.5067 100 100 89.5067 100 76.5625V23.4375C100 10.4933 89.5067 0 76.5625 0Z" fill="#F4F2ED"/>
<path d="M49.9999 62.6668V50.0002M49.9999 37.3335H50.0316M81.6666 50.0002C81.6666 67.4892 67.4889 81.6668 49.9999 81.6668C32.5109 81.6668 18.3333 67.4892 18.3333 50.0002C18.3333 32.5111 32.5109 18.3335 49.9999 18.3335C67.4889 18.3335 81.6666 32.5111 81.6666 50.0002Z" stroke="#9C59CC" stroke-width="6" stroke-linecap="round" stroke-linejoin="round"/>
</g>
<defs>
<clipPath id="clip0_6286_4019">
<rect width="100" height="100" fill="white"/>
</clipPath>
</defs>
</svg>
