<svg width="100" height="100" viewBox="0 0 100 100" fill="none" xmlns="http://www.w3.org/2000/svg">
<g clip-path="url(#clip0_6286_3736)">
<path d="M76.5625 0H23.4375C10.4933 0 0 10.4933 0 23.4375V76.5625C0 89.5067 10.4933 100 23.4375 100H76.5625C89.5067 100 100 89.5067 100 76.5625V23.4375C100 10.4933 89.5067 0 76.5625 0Z" fill="#F4F2ED"/>
<path d="M85.2827 57.8262C84.2015 63.2977 75.5972 69.2855 65.7151 70.4457C60.562 71.0504 55.4882 71.6062 50.078 71.3621C41.2304 70.9637 34.2491 69.2855 34.2491 69.2855C34.2491 70.1324 34.3022 70.9391 34.4081 71.6934C35.5585 80.2805 43.0667 80.7949 50.1784 81.0348C57.3565 81.2762 63.7483 79.2941 63.7483 79.2941L64.0433 85.6762C64.0433 85.6762 59.0226 88.3277 50.078 88.8152C45.146 89.0816 39.0222 88.6934 31.8894 86.8367C16.4194 82.8098 13.7593 66.593 13.3522 50.1383C13.228 45.2527 13.3046 40.6461 13.3046 36.793C13.3046 19.9676 24.5144 15.0355 24.5144 15.0355C30.1667 12.4828 39.8655 11.4094 49.9487 11.3281H50.1964C60.2792 11.409 69.9847 12.4828 75.6366 15.0355C75.6366 15.0355 86.846 19.9676 86.846 36.7934C86.846 36.7934 86.9866 49.2074 85.2827 57.8262Z" fill="#9C59CC"/>
<path d="M73.6238 38.0985V58.4716H65.4164V38.6974C65.4164 34.529 63.6328 32.4134 60.0656 32.4134C56.1214 32.4134 54.1449 34.9231 54.1449 39.886V50.7095H45.9859V39.886C45.9859 34.9231 44.0085 32.4134 40.0644 32.4134C36.4972 32.4134 34.714 34.529 34.714 38.6974V58.4716H26.5066V38.0985C26.5066 33.9345 27.5847 30.6259 29.75 28.1778C31.9828 25.7302 34.9074 24.4751 38.5375 24.4751C42.7375 24.4751 45.9179 26.0626 48.0207 29.238L50.0652 32.6083L52.1097 29.238C54.2125 26.0626 57.3929 24.4751 61.5933 24.4751C65.223 24.4751 68.1472 25.7302 70.3808 28.1782C72.5457 30.6259 73.6238 33.9349 73.6238 38.0985Z" fill="white"/>
</g>
<defs>
<clipPath id="clip0_6286_3736">
<rect width="100" height="100" fill="white"/>
</clipPath>
</defs>
</svg>
