<svg width="100" height="100" viewBox="0 0 100 100" fill="none" xmlns="http://www.w3.org/2000/svg">
<g clip-path="url(#clip0_6286_3751)">
<path d="M76.5625 0H23.4375C10.4933 0 0 10.4933 0 23.4375V76.5625C0 89.5067 10.4933 100 23.4375 100H76.5625C89.5067 100 100 89.5067 100 76.5625V23.4375C100 10.4933 89.5067 0 76.5625 0Z" fill="#F4F2ED"/>
<path d="M52.8749 65.8433H52.875V65.8333V37.0417H69C71.4422 37.0417 73.7844 36.0715 75.5113 34.3446C77.2382 32.6177 78.2083 30.2755 78.2083 27.8333C78.2083 25.3911 77.2382 23.049 75.5113 21.3221C73.7844 19.5952 71.4422 18.625 69 18.625H50C49.2375 18.625 48.5062 18.9279 47.967 19.4671C47.4279 20.0062 47.125 20.7375 47.125 21.5V56.1283C44.8091 54.4451 42.0234 53.5096 39.1439 53.4632C35.9143 53.4111 32.7665 54.4807 30.2372 56.4897C27.7079 58.4987 25.9536 61.3227 25.2735 64.4804C24.5933 67.638 25.0293 70.9338 26.5071 73.806C27.985 76.6782 30.4132 78.9489 33.3779 80.2311C36.3426 81.5133 39.6602 81.7277 42.7652 80.8376C45.8703 79.9475 48.5705 78.008 50.4056 75.3499C52.2291 72.7086 53.0862 69.5202 52.8339 66.3218C52.858 66.1634 52.8717 66.0035 52.8749 65.8433ZM69 31.2917H52.875V24.375H69C69.9172 24.375 70.7968 24.7394 71.4454 25.3879C72.094 26.0365 72.4583 26.9161 72.4583 27.8333C72.4583 28.7505 72.094 29.6302 71.4454 30.2787C70.7968 30.9273 69.9172 31.2917 69 31.2917ZM33.1125 61.6125C34.6518 60.0731 36.7397 59.2083 38.9166 59.2083C41.0936 59.2083 43.1815 60.0731 44.7208 61.6125C46.2602 63.1519 47.125 65.2397 47.125 67.4167C47.125 69.5937 46.2602 71.6815 44.7208 73.2208C43.1815 74.7602 41.0936 75.625 38.9166 75.625C36.7397 75.625 34.6518 74.7602 33.1125 73.2208C31.5731 71.6815 30.7083 69.5937 30.7083 67.4167C30.7083 65.2397 31.5731 63.1519 33.1125 61.6125Z" fill="#9C59CC" stroke="#9C59CC"/>
</g>
<defs>
<clipPath id="clip0_6286_3751">
<rect width="100" height="100" fill="white"/>
</clipPath>
</defs>
</svg>
