<svg width="100" height="100" viewBox="0 0 100 100" fill="none" xmlns="http://www.w3.org/2000/svg">
<g clip-path="url(#clip0_6286_4026)">
<path d="M76.5625 0H23.4375C10.4933 0 0 10.4933 0 23.4375V76.5625C0 89.5067 10.4933 100 23.4375 100H76.5625C89.5067 100 100 89.5067 100 76.5625V23.4375C100 10.4933 89.5067 0 76.5625 0Z" fill="#F4F2ED"/>
<path fill-rule="evenodd" clip-rule="evenodd" d="M67.0834 22.6665C69.6903 22.6665 71.8463 24.1493 73.4248 25.7073C75.0682 27.3234 76.5749 29.4964 77.9143 31.8915C80.6032 36.6953 82.9436 42.9718 84.4913 49.173C86.0288 55.3264 86.8796 61.7532 86.3363 66.8064C85.7897 71.8802 83.1759 77.3332 77.3334 77.3332C72.2904 77.3332 68.2724 74.7365 64.9856 72.1023L63.7864 71.1148L62.1054 69.6969L60.5883 68.4396C57.1068 65.6208 54.0147 63.6665 50.0001 63.6665C45.9855 63.6665 42.8934 65.6208 39.4118 68.4396L37.8948 69.6969L36.2139 71.1148L35.018 72.1023C31.7243 74.7365 27.7063 77.3332 22.6668 77.3332C16.8208 77.3332 14.2071 71.8802 13.6638 66.8064C13.124 61.7498 13.9713 55.3264 15.5088 49.173C17.0566 42.9718 19.397 36.6953 22.0859 31.8881C23.4253 29.4964 24.932 27.3234 26.5754 25.7039C28.1539 24.1493 30.3098 22.6665 32.9168 22.6665C34.6763 22.6665 36.3949 23.0868 38.0862 23.589L40.1088 24.2074C40.446 24.3122 40.7819 24.4113 41.1168 24.5047C44.0722 25.352 47.0959 26.0832 50.0001 26.0832C52.9043 26.0832 55.928 25.352 58.8834 24.5047L61.9072 23.5924C63.6087 23.0902 65.3409 22.6665 67.0834 22.6665ZM67.0834 29.4998C65.7748 29.4998 64.4082 29.8962 63.0825 30.3301L61.5177 30.846L60.7626 31.0783C57.7388 31.9393 53.9293 32.9165 50.0001 32.9165C46.0709 32.9165 42.2614 31.9393 39.2376 31.0783L38.4859 30.846L36.9177 30.3301C35.592 29.8928 34.2253 29.4998 32.9168 29.4998C31.4886 29.7663 30.2073 31.4986 29.2404 33.1044L28.7006 34.044L28.0514 35.2262C25.7213 39.3877 23.5756 45.0662 22.1406 50.8301C20.791 56.2148 20.135 61.3739 20.3844 65.2143L20.4733 66.2153L20.5416 66.8167L20.6441 67.5273C20.8798 68.8974 21.3889 70.4998 22.6668 70.4998C25.4411 70.4998 27.7576 69.1195 30.6378 66.8303L32.0148 65.7097L34.6114 63.5367L35.7868 62.58C39.4221 59.6998 43.9697 56.8332 50.0001 56.8332C56.0305 56.8332 60.5781 59.7032 64.2134 62.58L65.3922 63.5367L67.9888 65.7097L69.3624 66.8303C72.2426 69.1195 74.5557 70.4998 77.3334 70.4998C78.4951 70.4998 79.0213 69.1776 79.2843 67.9066L79.4142 67.1618L79.5406 66.0787C79.9608 62.1632 79.3117 56.6316 77.863 50.8301C76.5442 45.5479 74.6309 40.3341 72.5262 36.2956L71.2996 34.0406L70.7598 33.1078C69.7929 31.4986 68.5116 29.7663 67.0834 29.4998ZM38.0418 36.3332C40.3072 36.3332 42.4798 37.2331 44.0816 38.835C45.6835 40.4368 46.5834 42.6094 46.5834 44.8748C46.5834 47.1402 45.6835 49.3128 44.0816 50.9147C42.4798 52.5166 40.3072 53.4165 38.0418 53.4165C35.7764 53.4165 33.6038 52.5166 32.0019 50.9147C30.4 49.3128 29.5001 47.1402 29.5001 44.8748C29.5001 42.6094 30.4 40.4368 32.0019 38.835C33.6038 37.2331 35.7764 36.3332 38.0418 36.3332ZM61.9584 36.3332C62.7953 36.3333 63.603 36.6405 64.2284 37.1966C64.8537 37.7527 65.2533 38.519 65.3512 39.3501L65.3751 39.7498V41.4582H67.0834C67.9543 41.4591 68.7919 41.7926 69.4251 42.3904C70.0583 42.9882 70.4394 43.8053 70.4904 44.6746C70.5415 45.5439 70.2586 46.4 69.6997 47.0678C69.1408 47.7356 68.3479 48.1647 67.4832 48.2676L67.0834 48.2915H65.3751V49.9998C65.3741 50.8707 65.0407 51.7083 64.4429 52.3415C63.8451 52.9747 63.028 53.3558 62.1587 53.4068C61.2893 53.4579 60.4333 53.175 59.7655 52.6161C59.0977 52.0572 58.6685 51.2643 58.5657 50.3996L58.5418 49.9998V48.2915H56.8334C55.9626 48.2905 55.125 47.9571 54.4918 47.3593C53.8585 46.7615 53.4775 45.9444 53.4264 45.0751C53.3754 44.2057 53.6582 43.3497 54.2172 42.6819C54.7761 42.0141 55.5689 41.5849 56.4337 41.4821L56.8334 41.4582H58.5418V39.7498C58.5418 38.8437 58.9017 37.9746 59.5425 37.3339C60.1832 36.6931 61.0523 36.3332 61.9584 36.3332ZM38.0418 43.1665C37.5887 43.1665 37.1542 43.3465 36.8338 43.6669C36.5134 43.9872 36.3334 44.4218 36.3334 44.8748C36.3334 45.3279 36.5134 45.7624 36.8338 46.0828C37.1542 46.4032 37.5887 46.5832 38.0418 46.5832C38.4948 46.5832 38.9294 46.4032 39.2497 46.0828C39.5701 45.7624 39.7501 45.3279 39.7501 44.8748C39.7501 44.4218 39.5701 43.9872 39.2497 43.6669C38.9294 43.3465 38.4948 43.1665 38.0418 43.1665Z" fill="#9C59CC"/>
</g>
<defs>
<clipPath id="clip0_6286_4026">
<rect width="100" height="100" fill="white"/>
</clipPath>
</defs>
</svg>
