<svg width="100" height="100" viewBox="0 0 100 100" fill="none" xmlns="http://www.w3.org/2000/svg">
<path d="M76.5625 0H23.4375C10.4933 0 0 10.4933 0 23.4375V76.5625C0 89.5067 10.4933 100 23.4375 100H76.5625C89.5067 100 100 89.5067 100 76.5625V23.4375C100 10.4933 89.5067 0 76.5625 0Z" fill="#F4F2ED"/>
<path d="M50 14C30.128 14 14 30.128 14 50C14 69.872 30.128 86 50 86C69.872 86 86 69.872 86 50C86 30.128 69.872 14 50 14ZM66.704 38.48C66.164 44.168 63.824 57.992 62.636 64.364C62.132 67.064 61.124 67.964 60.188 68.072C58.1 68.252 56.516 66.704 54.5 65.372C51.332 63.284 49.532 61.988 46.472 59.972C42.908 57.632 45.212 56.336 47.264 54.248C47.804 53.708 57.02 45.32 57.2 44.564C57.225 44.4495 57.2217 44.3306 57.1903 44.2177C57.1589 44.1048 57.1005 44.0012 57.02 43.916C56.804 43.736 56.516 43.808 56.264 43.844C55.94 43.916 50.9 47.264 41.072 53.888C39.632 54.86 38.336 55.364 37.184 55.328C35.888 55.292 33.44 54.608 31.604 53.996C29.336 53.276 27.572 52.88 27.716 51.62C27.788 50.972 28.688 50.324 30.38 49.64C40.892 45.068 47.876 42.044 51.368 40.604C61.376 36.428 63.428 35.708 64.796 35.708C65.084 35.708 65.768 35.78 66.2 36.14C66.56 36.428 66.668 36.824 66.704 37.112C66.668 37.328 66.74 37.976 66.704 38.48Z" fill="#9C59CC"/>
</svg>
