<svg width="100" height="100" viewBox="0 0 100 100" fill="none" xmlns="http://www.w3.org/2000/svg">
<path d="M76.5625 0H23.4375C10.4933 0 0 10.4933 0 23.4375V76.5625C0 89.5067 10.4933 100 23.4375 100H76.5625C89.5067 100 100 89.5067 100 76.5625V23.4375C100 10.4933 89.5067 0 76.5625 0Z" fill="#F4F2ED"/>
<path d="M50.0008 63C31.2808 63 27.9646 44.3434 27.3771 29.546C27.2137 25.4299 27.132 23.3719 28.6781 21.4677C30.2241 19.5636 32.0746 19.2513 35.7755 18.6269C39.4286 18.0105 44.2041 17.5 50.0008 17.5C55.7971 17.5 60.5727 18.0105 64.2257 18.6269C67.9268 19.2513 69.777 19.5636 71.323 21.4677C72.8694 23.3719 72.7875 25.4299 72.624 29.546C72.0367 44.3434 68.7204 63 50.0008 63Z" stroke="#9C59CC" stroke-width="6"/>
<path d="M50 63V72.75" stroke="#9C59CC" stroke-width="6" stroke-linecap="round"/>
<path d="M61.375 82.5H38.625L39.7275 76.9877C40.0313 75.4686 41.3651 74.375 42.9144 74.375H57.0856C58.6349 74.375 59.9687 75.4686 60.2726 76.9877L61.375 82.5Z" stroke="#9C59CC" stroke-width="6" stroke-linecap="round" stroke-linejoin="round"/>
<path d="M72.75 27.25L75.833 28.2777C79.0508 29.3502 80.6595 29.8865 81.5796 31.1633C82.5 32.44 82.5 34.1359 82.4997 37.5276V37.7633C82.4997 40.5607 82.4997 41.9594 81.8263 43.1038C81.1529 44.2481 79.9302 44.9274 77.4849 46.2859L67.875 51.625" stroke="#9C59CC" stroke-width="6"/>
<path d="M27.2498 27.25L24.1668 28.2777C20.9491 29.3502 19.3402 29.8865 18.4201 31.1633C17.4999 32.44 17.4999 34.1359 17.5 37.5276V37.7633C17.5001 40.5607 17.5001 41.9594 18.1735 43.1038C18.8468 44.2481 20.0695 44.9274 22.5149 46.2859L32.1248 51.625" stroke="#9C59CC" stroke-width="6"/>
<path d="M47.2242 30.5732C48.4592 28.3577 49.0767 27.25 50 27.25C50.9233 27.25 51.5408 28.3577 52.7758 30.5732L53.0953 31.1463C53.446 31.7759 53.6215 32.0907 53.8951 32.2984C54.1688 32.5061 54.5094 32.5832 55.1909 32.7373L55.8113 32.8777C58.2095 33.4204 59.4087 33.6917 59.6941 34.609C59.9794 35.5264 59.1617 36.4823 57.527 38.3942L57.1038 38.8888C56.6394 39.4321 56.407 39.7037 56.3024 40.0398C56.1981 40.3758 56.2332 40.7382 56.3034 41.4631L56.3674 42.123C56.6144 44.6739 56.7382 45.9492 55.9914 46.5163C55.2442 47.0831 54.1216 46.5664 51.8762 45.5325L51.2954 45.2651C50.6571 44.9713 50.3383 44.8244 50 44.8244C49.6617 44.8244 49.3428 44.9713 48.7045 45.2651L48.1238 45.5325C45.8783 46.5664 44.7558 47.0831 44.0086 46.5163C43.2619 45.9492 43.3855 44.6739 43.6326 42.123L43.6966 41.4631C43.7668 40.7382 43.8019 40.3758 43.6976 40.0398C43.5929 39.7037 43.3607 39.4321 42.8961 38.8888L42.4731 38.3942C40.8381 36.4823 40.0207 35.5264 40.306 34.609C40.5913 33.6917 41.7904 33.4204 44.1887 32.8777L44.8091 32.7373C45.4906 32.5832 45.8312 32.5061 46.1049 32.2984C46.3785 32.0907 46.554 31.7759 46.9047 31.1463L47.2242 30.5732Z" stroke="#9C59CC" stroke-width="6"/>
<path d="M69.5 82.5H30.5" stroke="#9C59CC" stroke-width="6" stroke-linecap="round"/>
</svg>
