<svg width="100" height="100" viewBox="0 0 100 100" fill="none" xmlns="http://www.w3.org/2000/svg">
<g clip-path="url(#clip0_6286_3741)">
<path d="M76.5625 0H23.4375C10.4933 0 0 10.4933 0 23.4375V76.5625C0 89.5067 10.4933 100 23.4375 100H76.5625C89.5067 100 100 89.5067 100 76.5625V23.4375C100 10.4933 89.5067 0 76.5625 0Z" fill="#F4F2ED"/>
<path d="M31.5 37.6665H43.8333" stroke="#9C59CC" stroke-width="6" stroke-linecap="round" stroke-linejoin="round"/>
<path d="M77.236 40.75H69.2116C63.71 40.75 59.25 44.8912 59.25 50C59.25 55.1088 63.71 59.25 69.2116 59.25H77.236C77.4932 59.25 77.6214 59.25 77.73 59.2435C79.3928 59.1421 80.7171 57.9124 80.8262 56.3683C80.8333 56.2675 80.8333 56.1482 80.8333 55.9098V44.0902C80.8333 43.8518 80.8333 43.7324 80.8262 43.6317C80.7171 42.0877 79.3928 40.8578 77.73 40.7566C77.6214 40.75 77.4932 40.75 77.236 40.75Z" stroke="#9C59CC" stroke-width="6"/>
<path d="M77.6422 40.7502C77.4026 34.9772 76.6296 31.4377 74.1376 28.9458C70.5255 25.3335 64.7113 25.3335 53.0834 25.3335H43.8334C32.2054 25.3335 26.3915 25.3335 22.7791 28.9458C19.1667 32.5582 19.1667 38.3722 19.1667 50.0002C19.1667 61.628 19.1667 67.4423 22.7791 71.0544C26.3915 74.6668 32.2054 74.6668 43.8334 74.6668H53.0834C64.7113 74.6668 70.5255 74.6668 74.1376 71.0544C76.6296 68.5628 77.4026 65.0231 77.6422 59.2502" stroke="#9C59CC" stroke-width="6"/>
<path d="M68.4729 50H68.5007" stroke="#9C59CC" stroke-width="4" stroke-linecap="round" stroke-linejoin="round"/>
</g>
<defs>
<clipPath id="clip0_6286_3741">
<rect width="100" height="100" fill="white"/>
</clipPath>
</defs>
</svg>
