<svg width="100" height="100" viewBox="0 0 100 100" fill="none" xmlns="http://www.w3.org/2000/svg">
<path d="M76.5625 0H23.4375C10.4933 0 0 10.4933 0 23.4375V76.5625C0 89.5067 10.4933 100 23.4375 100H76.5625C89.5067 100 100 89.5067 100 76.5625V23.4375C100 10.4933 89.5067 0 76.5625 0Z" fill="#F4F2ED"/>
<mask id="mask0_6286_3773" style="mask-type:luminance" maskUnits="userSpaceOnUse" x="21" y="20" width="61" height="60">
<path d="M21.3999 20.1001H81.1999V79.9001H21.3999V20.1001Z" fill="white"/>
</mask>
<g mask="url(#mask0_6286_3773)">
<path d="M68.4924 22.7002H77.6632L57.6302 45.826L81.1999 77.3002H62.7473L48.2843 58.2152L31.7538 77.3002H22.5745L44 52.5563L21.3999 22.7045H40.3223L53.3758 40.1457L68.4924 22.7002ZM65.2675 71.7576H70.3505L37.5459 27.9545H32.0956L65.2675 71.7576Z" fill="#9C59CC"/>
</g>
</svg>
