<svg width="100" height="100" viewBox="0 0 100 100" fill="none" xmlns="http://www.w3.org/2000/svg">
<path d="M76.5625 0H23.4375C10.4933 0 0 10.4933 0 23.4375V76.5625C0 89.5067 10.4933 100 23.4375 100H76.5625C89.5067 100 100 89.5067 100 76.5625V23.4375C100 10.4933 89.5067 0 76.5625 0Z" fill="#F4F2ED"/>
<path d="M50 21.5098C13.6364 21.5098 13 24.7436 13 49.9998C13 75.256 13.6364 78.4898 50 78.4898C86.3636 78.4898 87 75.256 87 49.9998C87 24.7436 86.3636 21.5098 50 21.5098ZM61.8585 51.2356L45.2455 58.9908C43.7914 59.6642 42.6 58.9094 42.6 57.3036V42.696C42.6 41.0939 43.7914 40.3354 45.2455 41.0088L61.8585 48.764C63.3126 49.4448 63.3126 50.5548 61.8585 51.2356Z" fill="#9C59CC"/>
</svg>
