<svg width="27" height="26" viewBox="0 0 27 26" fill="none" xmlns="http://www.w3.org/2000/svg">
<path fill-rule="evenodd" clip-rule="evenodd" d="M15.293 1.94882C14.559 0.463676 12.441 0.463673 11.707 1.94882L9.33017 6.75801C9.0389 7.34736 8.4766 7.75593 7.8261 7.85089L2.51174 8.62669C0.871127 8.86619 0.217627 10.8832 1.40607 12.0393L3.66255 14.2344C3.8684 14.4346 4.1504 14.5367 4.43673 14.5146L10.0523 14.0815C11.1047 14.0004 11.5487 15.3936 10.6433 15.9363L5.97044 18.7372C5.72047 18.887 5.5483 19.1384 5.49898 19.4257L4.9157 22.8222C4.63517 24.4558 6.34943 25.702 7.81684 24.9313L12.57 22.4348C13.1523 22.129 13.8477 22.129 14.43 22.4348L19.1831 24.9313C20.6505 25.702 22.3648 24.4558 22.0843 22.8222L21.1782 17.546C21.0667 16.8964 21.2823 16.2335 21.7548 15.7739L25.5939 12.0393C26.7824 10.8832 26.1289 8.86619 24.4882 8.62669L19.1739 7.85089C18.5234 7.75593 17.9611 7.34736 17.6698 6.75801L15.293 1.94882Z" fill="white"/>
</svg>
