<svg width="31" height="30" viewBox="0 0 31 30" fill="none" xmlns="http://www.w3.org/2000/svg">
<path d="M13 12.5C15.7614 12.5 18 10.2614 18 7.5C18 4.73858 15.7614 2.5 13 2.5C10.2386 2.5 8 4.73858 8 7.5C8 10.2614 10.2386 12.5 13 12.5Z" stroke="white" stroke-width="1.5"/>
<path d="M23 21.875C23 24.9816 23 27.5 13 27.5C3 27.5 3 24.9816 3 21.875C3 18.7684 7.47715 16.25 13 16.25C18.5229 16.25 23 18.7684 23 21.875Z" stroke="white" stroke-width="1.5"/>
<path d="M27.4913 11.6248H28.3904C28.2305 10.7883 27.6774 10.0947 26.9348 9.76608L26.9348 9.76607C26.3974 9.52823 25.7836 9.49001 25.1738 9.6974C25.2059 9.72801 25.2378 9.75925 25.2695 9.7911L25.622 10.1457L25.2674 10.4982L25.0404 10.7239C25.2404 10.5987 25.442 10.5166 25.6424 10.4737C26.0057 10.3959 26.3286 10.4547 26.5807 10.5662L27.4913 11.6248ZM27.4913 11.6248C27.3494 11.1413 27.0082 10.7554 26.5807 10.5662L27.4913 11.6248ZM21.0087 11.6248H20.1096C20.2695 10.7883 20.8226 10.0947 21.5652 9.76608L21.5652 9.76607C22.1026 9.52823 22.7164 9.49001 23.3262 9.6974C23.2941 9.72801 23.2622 9.75925 23.2305 9.7911L22.878 10.1457L23.2326 10.4982L23.4596 10.7239C23.2596 10.5987 23.058 10.5166 22.8576 10.4737C22.4943 10.3959 22.1714 10.4547 21.9193 10.5662L21.0087 11.6248ZM21.0087 11.6248C21.1506 11.1413 21.4918 10.7554 21.9193 10.5662L21.0087 11.6248ZM23.5081 15.9766L23.75 15.6597V16.5881C23.6504 16.5495 23.5569 16.5029 23.4704 16.4539L23.4703 16.4538C23.3957 16.4116 23.3217 16.365 23.249 16.3161L23.5081 15.9766ZM24.75 16.5881V15.6597L24.9919 15.9766L25.251 16.3161C25.1783 16.365 25.1043 16.4116 25.0297 16.4538L25.0296 16.4539C24.9431 16.5029 24.8496 16.5495 24.75 16.5881ZM26.0549 15.7212L25.7868 15.37L25.5237 15.0252C25.9716 14.6905 26.4158 14.3532 26.7861 13.9496L26.7861 13.9495C27.1416 13.5619 27.4067 13.1347 27.5123 12.6248H28.4009C28.284 13.4075 27.8995 14.0301 27.4308 14.541L27.4308 14.5411C27.0124 14.9973 26.5047 15.3853 26.0549 15.7212ZM22.4451 15.7212C21.9953 15.3853 21.4876 14.9973 21.0692 14.5411L21.0692 14.541C20.6005 14.0301 20.216 13.4075 20.0991 12.6248H20.9877C21.0933 13.1347 21.3584 13.5619 21.7139 13.9495L21.7139 13.9496C22.0842 14.3532 22.5284 14.6905 22.9763 15.0252L22.7132 15.37L22.4451 15.7212Z" fill="white" stroke="white"/>
</svg>
